<svg xmlns="http://www.w3.org/2000/svg" viewBox="0 0 400 300" width="400" height="300">
    <!-- Gradient Background -->
    <defs>
        <linearGradient id="bgGradient" x1="0%" y1="0%" x2="100%" y2="100%">
            <stop offset="0%" stop-color="#f9f9f9" />
            <stop offset="100%" stop-color="#f0f0f0" />
        </linearGradient>
        <linearGradient id="gameGradient" x1="0%" y1="0%" x2="100%" y2="100%">
            <stop offset="0%" stop-color="#6c63ff" />
            <stop offset="100%" stop-color="#4a45b1" />
        </linearGradient>
    </defs>
    <rect width="400" height="300" fill="url(#bgGradient)"/>

    <!-- Subtle Grid Pattern -->
    <path d="M0,50 L400,50 M0,100 L400,100 M0,150 L400,150 M0,200 L400,200 M0,250 L400,250" stroke="#e0e0e0" stroke-width="0.5" stroke-dasharray="2,8"/>
    <path d="M50,0 L50,300 M100,0 L100,300 M150,0 L150,300 M200,0 L200,300 M250,0 L250,300 M300,0 L300,300 M350,0 L350,300" stroke="#e0e0e0" stroke-width="0.5" stroke-dasharray="2,8"/>

    <!-- Game Console -->
    <rect x="120" y="80" width="160" height="140" rx="8" ry="8" fill="#ffffff" stroke="#e4e8f0" stroke-width="2"/>

    <!-- Game Screen -->
    <rect x="130" y="90" width="140" height="90" rx="4" ry="4" fill="url(#gameGradient)"/>

    <!-- Game Elements - Puzzle Pieces -->
    <rect x="140" y="100" width="25" height="25" rx="2" ry="2" fill="white" opacity="0.7"/>
    <rect x="175" y="100" width="25" height="25" rx="2" ry="2" fill="white" opacity="0.5"/>
    <rect x="210" y="100" width="25" height="25" rx="2" ry="2" fill="white" opacity="0.7"/>
    <rect x="245" y="100" width="15" height="25" rx="2" ry="2" fill="white" opacity="0.5"/>

    <rect x="140" y="135" width="15" height="25" rx="2" ry="2" fill="white" opacity="0.5"/>
    <rect x="165" y="135" width="25" height="25" rx="2" ry="2" fill="white" opacity="0.7"/>
    <rect x="200" y="135" width="25" height="25" rx="2" ry="2" fill="white" opacity="0.5"/>
    <rect x="235" y="135" width="25" height="25" rx="2" ry="2" fill="white" opacity="0.7"/>

    <!-- Game Controls -->
    <rect x="140" y="190" width="120" height="20" rx="10" ry="10" fill="#f0f0f0" stroke="#e0e0e0" stroke-width="1"/>
    <circle cx="150" cy="200" r="5" fill="#6c63ff" opacity="0.8"/>
    <circle cx="170" cy="200" r="5" fill="#6c63ff" opacity="0.8"/>
    <circle cx="190" cy="200" r="5" fill="#6c63ff" opacity="0.8"/>
    <rect x="210" cy="195" width="40" height="10" rx="5" ry="5" fill="#6c63ff" opacity="0.8"/>

    <!-- AI Neural Network Elements -->
    <circle cx="80" cy="120" r="5" fill="#6c63ff" opacity="0.2"/>
    <circle cx="80" cy="140" r="5" fill="#6c63ff" opacity="0.2"/>
    <circle cx="80" cy="160" r="5" fill="#6c63ff" opacity="0.2"/>

    <circle cx="100" cy="110" r="5" fill="#6c63ff" opacity="0.2"/>
    <circle cx="100" cy="130" r="5" fill="#6c63ff" opacity="0.2"/>
    <circle cx="100" cy="150" r="5" fill="#6c63ff" opacity="0.2"/>
    <circle cx="100" cy="170" r="5" fill="#6c63ff" opacity="0.2"/>

    <circle cx="320" cy="120" r="5" fill="#6c63ff" opacity="0.2"/>
    <circle cx="320" cy="140" r="5" fill="#6c63ff" opacity="0.2"/>
    <circle cx="320" cy="160" r="5" fill="#6c63ff" opacity="0.2"/>

    <circle cx="300" cy="110" r="5" fill="#6c63ff" opacity="0.2"/>
    <circle cx="300" cy="130" r="5" fill="#6c63ff" opacity="0.2"/>
    <circle cx="300" cy="150" r="5" fill="#6c63ff" opacity="0.2"/>
    <circle cx="300" cy="170" r="5" fill="#6c63ff" opacity="0.2"/>

    <!-- Connection Lines -->
    <path d="M80,120 L100,110 M80,120 L100,130 M80,140 L100,130 M80,140 L100,150 M80,160 L100,150 M80,160 L100,170" stroke="#6c63ff" stroke-width="0.5" opacity="0.3"/>
    <path d="M320,120 L300,110 M320,120 L300,130 M320,140 L300,130 M320,140 L300,150 M320,160 L300,150 M320,160 L300,170" stroke="#6c63ff" stroke-width="0.5" opacity="0.3"/>

    <path d="M100,110 L130,90 M100,130 L130,90 M100,150 L130,90 M100,170 L130,90" stroke="#6c63ff" stroke-width="0.5" opacity="0.2"/>
    <path d="M300,110 L270,90 M300,130 L270,90 M300,150 L270,90 M300,170 L270,90" stroke="#6c63ff" stroke-width="0.5" opacity="0.2"/>
</svg> 