<svg xmlns="http://www.w3.org/2000/svg" viewBox="0 0 400 300" width="400" height="300">
    <!-- Gradient Background -->
    <defs>
        <linearGradient id="bgGradient" x1="0%" y1="0%" x2="100%" y2="100%">
            <stop offset="0%" stop-color="#f9f9f9" />
            <stop offset="100%" stop-color="#f0f0f0" />
        </linearGradient>
        <linearGradient id="aiGradient" x1="0%" y1="0%" x2="100%" y2="100%">
            <stop offset="0%" stop-color="#6c63ff" />
            <stop offset="100%" stop-color="#4a45b1" />
        </linearGradient>
        <filter id="glow">
            <feGaussianBlur stdDeviation="2" result="blur"/>
            <feComposite in="SourceGraphic" in2="blur" operator="over"/>
        </filter>
    </defs>
    <rect width="400" height="300" fill="url(#bgGradient)"/>

    <!-- Subtle Grid Pattern -->
    <path d="M0,50 L400,50 M0,100 L400,100 M0,150 L400,150 M0,200 L400,200 M0,250 L400,250" stroke="#e0e0e0" stroke-width="0.5" stroke-dasharray="2,8"/>
    <path d="M50,0 L50,300 M100,0 L100,300 M150,0 L150,300 M200,0 L200,300 M250,0 L250,300 M300,0 L300,300 M350,0 L350,300" stroke="#e0e0e0" stroke-width="0.5" stroke-dasharray="2,8"/>

    <!-- Smart Speaker Device -->
    <path d="M180,120 L180,220 C180,230 190,240 200,240 L200,240 C210,240 220,230 220,220 L220,120 C220,110 210,100 200,100 L200,100 C190,100 180,110 180,120 Z" fill="#ffffff" stroke="#e4e8f0" stroke-width="2"/>

    <!-- Speaker Grill -->
    <circle cx="200" cy="130" r="15" fill="#f0f0f0"/>
    <circle cx="200" cy="160" r="15" fill="#f0f0f0"/>
    <circle cx="200" cy="190" r="15" fill="#f0f0f0"/>

    <!-- AI Core -->
    <circle cx="200" cy="160" r="30" fill="url(#aiGradient)" opacity="0.2"/>
    <circle cx="200" cy="160" r="20" fill="url(#aiGradient)" opacity="0.4"/>
    <circle cx="200" cy="160" r="10" fill="url(#aiGradient)" opacity="0.6"/>

    <!-- Voice Waves - More Elegant -->
    <g filter="url(#glow)">
        <path d="M240,130 Q260,160 240,190" stroke="#6c63ff" stroke-width="1.5" fill="none" opacity="0.6"/>
        <path d="M250,120 Q280,160 250,200" stroke="#6c63ff" stroke-width="1.5" fill="none" opacity="0.5"/>
        <path d="M260,110 Q300,160 260,210" stroke="#6c63ff" stroke-width="1.5" fill="none" opacity="0.4"/>

        <path d="M160,130 Q140,160 160,190" stroke="#6c63ff" stroke-width="1.5" fill="none" opacity="0.6"/>
        <path d="M150,120 Q120,160 150,200" stroke="#6c63ff" stroke-width="1.5" fill="none" opacity="0.5"/>
        <path d="M140,110 Q100,160 140,210" stroke="#6c63ff" stroke-width="1.5" fill="none" opacity="0.4"/>
    </g>

    <!-- Digital Particles -->
    <circle cx="260" cy="140" r="1.5" fill="#6c63ff" opacity="0.7"/>
    <circle cx="270" cy="160" r="1.5" fill="#6c63ff" opacity="0.7"/>
    <circle cx="265" cy="180" r="1.5" fill="#6c63ff" opacity="0.7"/>
    <circle cx="280" cy="150" r="1.5" fill="#6c63ff" opacity="0.7"/>
    <circle cx="275" cy="170" r="1.5" fill="#6c63ff" opacity="0.7"/>

    <circle cx="140" cy="140" r="1.5" fill="#6c63ff" opacity="0.7"/>
    <circle cx="130" cy="160" r="1.5" fill="#6c63ff" opacity="0.7"/>
    <circle cx="135" cy="180" r="1.5" fill="#6c63ff" opacity="0.7"/>
    <circle cx="120" cy="150" r="1.5" fill="#6c63ff" opacity="0.7"/>
    <circle cx="125" cy="170" r="1.5" fill="#6c63ff" opacity="0.7"/>

    <!-- Conversation Elements -->
    <rect x="290" y="120" width="60" height="25" rx="12.5" ry="12.5" fill="#ffffff" stroke="#e4e8f0" stroke-width="1"/>
    <rect x="290" y="160" width="40" height="25" rx="12.5" ry="12.5" fill="#ffffff" stroke="#e4e8f0" stroke-width="1"/>

    <rect x="50" y="140" width="50" height="25" rx="12.5" ry="12.5" fill="#ffffff" stroke="#e4e8f0" stroke-width="1"/>
    <rect x="70" y="180" width="40" height="25" rx="12.5" ry="12.5" fill="#ffffff" stroke="#e4e8f0" stroke-width="1"/>

    <!-- Connection Lines -->
    <path d="M240,160 L290,160" stroke="#6c63ff" stroke-width="0.5" stroke-dasharray="2,2" opacity="0.5"/>
    <path d="M160,160 L110,160" stroke="#6c63ff" stroke-width="0.5" stroke-dasharray="2,2" opacity="0.5"/>

    <!-- Base -->
    <ellipse cx="200" cy="240" rx="25" ry="5" fill="#e4e8f0"/>
</svg> 